<svg width="263" height="40" viewBox="0 0 263 40" fill="none" xmlns="http://www.w3.org/2000/svg">
<path d="M58.358 27H56.5114L61.8523 12.4545H63.6705L69.0114 27H67.1648L62.8182 14.7557H62.7045L58.358 27ZM59.0398 21.3182H66.483V22.8807H59.0398V21.3182ZM77.9247 22.5398V16.0909H79.6009V27H77.9247V25.1534H77.8111C77.5554 25.7074 77.1577 26.1785 76.6179 26.5668C76.0781 26.9503 75.3963 27.142 74.5724 27.142C73.8906 27.142 73.2846 26.9929 72.7543 26.6946C72.224 26.3916 71.8073 25.937 71.5043 25.331C71.2012 24.7202 71.0497 23.9508 71.0497 23.0227V16.0909H72.7259V22.9091C72.7259 23.7045 72.9484 24.339 73.3935 24.8125C73.8433 25.286 74.4162 25.5227 75.1122 25.5227C75.5289 25.5227 75.9527 25.4162 76.3835 25.2031C76.8191 24.9901 77.1837 24.6634 77.4773 24.223C77.7756 23.7827 77.9247 23.2216 77.9247 22.5398ZM84.3469 12.4545V27H82.6708V12.4545H84.3469ZM90.6271 27.2557C89.9358 27.2557 89.3085 27.1255 88.745 26.8651C88.1816 26.5999 87.7341 26.2188 87.4027 25.7216C87.0713 25.2197 86.9055 24.6136 86.9055 23.9034C86.9055 23.2784 87.0286 22.7718 87.2749 22.3835C87.5211 21.9905 87.8501 21.6828 88.2621 21.4602C88.674 21.2377 89.1286 21.072 89.6257 20.9631C90.1276 20.8494 90.6319 20.7595 91.1385 20.6932C91.8014 20.608 92.3388 20.544 92.7507 20.5014C93.1674 20.4541 93.4704 20.3759 93.6598 20.267C93.8539 20.1581 93.951 19.9687 93.951 19.6989V19.642C93.951 18.9413 93.7592 18.3968 93.3757 18.0085C92.9969 17.6203 92.4216 17.4261 91.6499 17.4261C90.8497 17.4261 90.2223 17.6013 89.7678 17.9517C89.3132 18.3021 88.9936 18.6761 88.8089 19.0739L87.218 18.5057C87.5021 17.8428 87.8809 17.3267 88.3544 16.9574C88.8326 16.5833 89.3535 16.3229 89.9169 16.1761C90.4851 16.0246 91.0438 15.9489 91.593 15.9489C91.9434 15.9489 92.3459 15.9915 92.8004 16.0767C93.2597 16.1572 93.7024 16.3253 94.1286 16.581C94.5594 16.8366 94.9169 17.2225 95.201 17.7386C95.4851 18.2547 95.6271 18.946 95.6271 19.8125V27H93.951V25.5227H93.8658C93.7521 25.7595 93.5627 26.0128 93.2976 26.2827C93.0324 26.5526 92.6797 26.7822 92.2393 26.9716C91.799 27.161 91.2616 27.2557 90.6271 27.2557ZM90.8828 25.75C91.5457 25.75 92.1044 25.6198 92.5589 25.3594C93.0182 25.099 93.3639 24.7628 93.5959 24.3509C93.8326 23.9389 93.951 23.5057 93.951 23.0511V21.517C93.88 21.6023 93.7237 21.6804 93.4822 21.7514C93.2455 21.8177 92.9709 21.8769 92.6584 21.929C92.3506 21.9763 92.05 22.0189 91.7564 22.0568C91.4676 22.09 91.2332 22.1184 91.0533 22.142C90.6177 22.1989 90.2105 22.2912 89.8317 22.419C89.4576 22.5421 89.1546 22.7292 88.9226 22.9801C88.6953 23.2263 88.5817 23.5625 88.5817 23.9886C88.5817 24.571 88.7971 25.0114 89.228 25.3097C89.6636 25.6032 90.2152 25.75 90.8828 25.75ZM106.414 18.5341L104.908 18.9602C104.813 18.7093 104.674 18.4654 104.489 18.2287C104.309 17.9872 104.063 17.7884 103.75 17.6321C103.438 17.4759 103.038 17.3977 102.55 17.3977C101.882 17.3977 101.326 17.5516 100.881 17.8594C100.441 18.1624 100.221 18.5483 100.221 19.017C100.221 19.4337 100.372 19.7628 100.675 20.0043C100.978 20.2457 101.452 20.447 102.096 20.608L103.715 21.0057C104.69 21.2424 105.417 21.6046 105.895 22.0923C106.373 22.5753 106.613 23.1979 106.613 23.9602C106.613 24.5852 106.433 25.1439 106.073 25.6364C105.718 26.1288 105.221 26.517 104.581 26.8011C103.942 27.0852 103.199 27.2273 102.351 27.2273C101.239 27.2273 100.318 26.9858 99.5884 26.5028C98.8593 26.0199 98.3976 25.3144 98.2035 24.3864L99.7944 23.9886C99.9459 24.5758 100.232 25.0161 100.654 25.3097C101.08 25.6032 101.636 25.75 102.323 25.75C103.104 25.75 103.724 25.5843 104.184 25.2528C104.648 24.9167 104.88 24.5142 104.88 24.0455C104.88 23.6667 104.747 23.3494 104.482 23.0938C104.217 22.8333 103.81 22.6392 103.26 22.5114L101.442 22.0852C100.443 21.8485 99.7092 21.4815 99.2404 20.9844C98.7764 20.4825 98.5444 19.8551 98.5444 19.1023C98.5444 18.4867 98.7172 17.9422 99.0629 17.4688C99.4132 16.9953 99.8891 16.6236 100.49 16.3537C101.096 16.0838 101.783 15.9489 102.55 15.9489C103.63 15.9489 104.477 16.1856 105.093 16.6591C105.713 17.1326 106.153 17.7576 106.414 18.5341ZM119.192 27.2273C118.208 27.2273 117.344 26.9929 116.6 26.5241C115.862 26.0554 115.284 25.3996 114.867 24.5568C114.455 23.714 114.249 22.7292 114.249 21.6023C114.249 20.4659 114.455 19.474 114.867 18.6264C115.284 17.7789 115.862 17.1207 116.6 16.652C117.344 16.1832 118.208 15.9489 119.192 15.9489C120.177 15.9489 121.039 16.1832 121.778 16.652C122.521 17.1207 123.099 17.7789 123.511 18.6264C123.927 19.474 124.136 20.4659 124.136 21.6023C124.136 22.7292 123.927 23.714 123.511 24.5568C123.099 25.3996 122.521 26.0554 121.778 26.5241C121.039 26.9929 120.177 27.2273 119.192 27.2273ZM119.192 25.7216C119.941 25.7216 120.556 25.5298 121.039 25.1463C121.522 24.7628 121.879 24.2585 122.112 23.6335C122.344 23.0085 122.46 22.3314 122.46 21.6023C122.46 20.8731 122.344 20.1937 122.112 19.5639C121.879 18.9342 121.522 18.4252 121.039 18.0369C120.556 17.6487 119.941 17.4545 119.192 17.4545C118.444 17.4545 117.829 17.6487 117.346 18.0369C116.863 18.4252 116.505 18.9342 116.273 19.5639C116.041 20.1937 115.925 20.8731 115.925 21.6023C115.925 22.3314 116.041 23.0085 116.273 23.6335C116.505 24.2585 116.863 24.7628 117.346 25.1463C117.829 25.5298 118.444 25.7216 119.192 25.7216ZM128.37 20.4375V27H126.694V16.0909H128.314V17.7955H128.456C128.711 17.2415 129.1 16.7964 129.62 16.4602C130.141 16.1193 130.814 15.9489 131.637 15.9489C132.376 15.9489 133.022 16.1004 133.576 16.4034C134.13 16.7017 134.561 17.1562 134.869 17.767C135.177 18.3731 135.331 19.1402 135.331 20.0682V27H133.654V20.1818C133.654 19.3248 133.432 18.6572 132.987 18.179C132.542 17.696 131.931 17.4545 131.154 17.4545C130.619 17.4545 130.141 17.5705 129.72 17.8026C129.303 18.0346 128.974 18.3731 128.733 18.8182C128.491 19.2633 128.37 19.803 128.37 20.4375ZM140.07 12.4545V27H138.393V12.4545H140.07ZM143.14 27V16.0909H144.816V27H143.14ZM143.992 14.2727C143.665 14.2727 143.383 14.1615 143.147 13.9389C142.915 13.7164 142.799 13.4489 142.799 13.1364C142.799 12.8239 142.915 12.5563 143.147 12.3338C143.383 12.1113 143.665 12 143.992 12C144.319 12 144.598 12.1113 144.83 12.3338C145.067 12.5563 145.185 12.8239 145.185 13.1364C145.185 13.4489 145.067 13.7164 144.83 13.9389C144.598 14.1615 144.319 14.2727 143.992 14.2727ZM149.562 20.4375V27H147.886V16.0909H149.505V17.7955H149.647C149.903 17.2415 150.291 16.7964 150.812 16.4602C151.333 16.1193 152.005 15.9489 152.829 15.9489C153.567 15.9489 154.214 16.1004 154.768 16.4034C155.322 16.7017 155.753 17.1562 156.06 17.767C156.368 18.3731 156.522 19.1402 156.522 20.0682V27H154.846V20.1818C154.846 19.3248 154.623 18.6572 154.178 18.179C153.733 17.696 153.122 17.4545 152.346 17.4545C151.811 17.4545 151.333 17.5705 150.911 17.8026C150.495 18.0346 150.165 18.3731 149.924 18.8182C149.683 19.2633 149.562 19.803 149.562 20.4375ZM164.159 27.2273C163.108 27.2273 162.201 26.9953 161.439 26.5312C160.681 26.0625 160.096 25.4091 159.684 24.571C159.277 23.7282 159.074 22.7481 159.074 21.6307C159.074 20.5133 159.277 19.5284 159.684 18.6761C160.096 17.8191 160.669 17.1515 161.403 16.6733C162.142 16.1903 163.003 15.9489 163.988 15.9489C164.556 15.9489 165.118 16.0436 165.672 16.233C166.225 16.4223 166.73 16.7301 167.184 17.1562C167.639 17.5777 168.001 18.1364 168.271 18.8324C168.541 19.5284 168.676 20.3854 168.676 21.4034V22.1136H160.267V20.6648H166.971C166.971 20.0492 166.848 19.5 166.602 19.017C166.36 18.5341 166.015 18.1529 165.565 17.8736C165.12 17.5942 164.594 17.4545 163.988 17.4545C163.321 17.4545 162.743 17.6203 162.255 17.9517C161.772 18.2784 161.401 18.7045 161.14 19.2301C160.88 19.7557 160.75 20.3191 160.75 20.9205V21.8864C160.75 22.7102 160.892 23.4086 161.176 23.9815C161.465 24.5497 161.865 24.983 162.376 25.2812C162.887 25.5748 163.482 25.7216 164.159 25.7216C164.599 25.7216 164.997 25.66 165.352 25.5369C165.712 25.4091 166.022 25.2197 166.282 24.9688C166.543 24.7131 166.744 24.3958 166.886 24.017L168.505 24.4716C168.335 25.0208 168.048 25.5038 167.646 25.9205C167.243 26.3324 166.746 26.6544 166.154 26.8864C165.563 27.1136 164.897 27.2273 164.159 27.2273ZM181.254 31.3182C180.444 31.3182 179.748 31.214 179.166 31.0057C178.583 30.8021 178.098 30.5322 177.71 30.196C177.326 29.8646 177.021 29.5095 176.794 29.1307L178.129 28.1932C178.28 28.392 178.472 28.6193 178.704 28.875C178.936 29.1354 179.253 29.3603 179.656 29.5497C180.063 29.7438 180.596 29.8409 181.254 29.8409C182.135 29.8409 182.861 29.6278 183.434 29.2017C184.007 28.7756 184.294 28.108 184.294 27.1989V24.983H184.152C184.029 25.1818 183.853 25.428 183.626 25.7216C183.404 26.0104 183.082 26.2685 182.66 26.4957C182.243 26.7183 181.68 26.8295 180.97 26.8295C180.089 26.8295 179.298 26.6212 178.598 26.2045C177.902 25.7879 177.35 25.1818 176.943 24.3864C176.54 23.5909 176.339 22.625 176.339 21.4886C176.339 20.3712 176.536 19.3982 176.929 18.5696C177.322 17.7363 177.868 17.0923 178.569 16.6378C179.27 16.1785 180.08 15.9489 180.998 15.9489C181.708 15.9489 182.272 16.0672 182.689 16.304C183.11 16.536 183.432 16.8011 183.654 17.0994C183.882 17.393 184.057 17.6345 184.18 17.8239H184.35V16.0909H185.97V27.3125C185.97 28.25 185.757 29.0123 185.331 29.5994C184.909 30.1913 184.341 30.6245 183.626 30.8991C182.916 31.1785 182.125 31.3182 181.254 31.3182ZM181.197 25.3239C181.869 25.3239 182.438 25.17 182.902 24.8622C183.366 24.5545 183.718 24.1117 183.96 23.5341C184.201 22.9564 184.322 22.2652 184.322 21.4602C184.322 20.6742 184.204 19.9806 183.967 19.3793C183.73 18.7779 183.38 18.3068 182.916 17.9659C182.452 17.625 181.879 17.4545 181.197 17.4545C180.487 17.4545 179.895 17.6345 179.422 17.9943C178.953 18.3542 178.6 18.8371 178.363 19.4432C178.131 20.0492 178.015 20.7216 178.015 21.4602C178.015 22.2178 178.134 22.8878 178.37 23.4702C178.612 24.0478 178.967 24.5024 179.436 24.8338C179.909 25.1605 180.496 25.3239 181.197 25.3239ZM189.038 27V16.0909H190.657V17.7386H190.771C190.97 17.1989 191.33 16.7609 191.85 16.4247C192.371 16.0885 192.958 15.9205 193.612 15.9205C193.735 15.9205 193.889 15.9228 194.074 15.9276C194.258 15.9323 194.398 15.9394 194.493 15.9489V17.6534C194.436 17.6392 194.306 17.6179 194.102 17.5895C193.903 17.5563 193.692 17.5398 193.47 17.5398C192.94 17.5398 192.466 17.651 192.049 17.8736C191.637 18.0914 191.311 18.3944 191.069 18.7827C190.833 19.1662 190.714 19.6042 190.714 20.0966V27H189.038ZM199.69 27.2557C198.998 27.2557 198.371 27.1255 197.808 26.8651C197.244 26.5999 196.797 26.2188 196.465 25.7216C196.134 25.2197 195.968 24.6136 195.968 23.9034C195.968 23.2784 196.091 22.7718 196.337 22.3835C196.584 21.9905 196.913 21.6828 197.325 21.4602C197.737 21.2377 198.191 21.072 198.688 20.9631C199.19 20.8494 199.694 20.7595 200.201 20.6932C200.864 20.608 201.401 20.544 201.813 20.5014C202.23 20.4541 202.533 20.3759 202.722 20.267C202.916 20.1581 203.013 19.9687 203.013 19.6989V19.642C203.013 18.9413 202.822 18.3968 202.438 18.0085C202.059 17.6203 201.484 17.4261 200.712 17.4261C199.912 17.4261 199.285 17.6013 198.83 17.9517C198.376 18.3021 198.056 18.6761 197.871 19.0739L196.281 18.5057C196.565 17.8428 196.943 17.3267 197.417 16.9574C197.895 16.5833 198.416 16.3229 198.979 16.1761C199.548 16.0246 200.106 15.9489 200.656 15.9489C201.006 15.9489 201.408 15.9915 201.863 16.0767C202.322 16.1572 202.765 16.3253 203.191 16.581C203.622 16.8366 203.979 17.2225 204.263 17.7386C204.548 18.2547 204.69 18.946 204.69 19.8125V27H203.013V25.5227H202.928C202.815 25.7595 202.625 26.0128 202.36 26.2827C202.095 26.5526 201.742 26.7822 201.302 26.9716C200.862 27.161 200.324 27.2557 199.69 27.2557ZM199.945 25.75C200.608 25.75 201.167 25.6198 201.621 25.3594C202.081 25.099 202.426 24.7628 202.658 24.3509C202.895 23.9389 203.013 23.5057 203.013 23.0511V21.517C202.942 21.6023 202.786 21.6804 202.545 21.7514C202.308 21.8177 202.033 21.8769 201.721 21.929C201.413 21.9763 201.112 22.0189 200.819 22.0568C200.53 22.09 200.296 22.1184 200.116 22.142C199.68 22.1989 199.273 22.2912 198.894 22.419C198.52 22.5421 198.217 22.7292 197.985 22.9801C197.758 23.2263 197.644 23.5625 197.644 23.9886C197.644 24.571 197.86 25.0114 198.29 25.3097C198.726 25.6032 199.278 25.75 199.945 25.75ZM216.279 16.0909L212.245 27H210.54L206.506 16.0909H208.324L211.336 24.7841H211.449L214.461 16.0909H216.279ZM221.369 27.2557C220.678 27.2557 220.051 27.1255 219.487 26.8651C218.924 26.5999 218.476 26.2188 218.145 25.7216C217.813 25.2197 217.648 24.6136 217.648 23.9034C217.648 23.2784 217.771 22.7718 218.017 22.3835C218.263 21.9905 218.592 21.6828 219.004 21.4602C219.416 21.2377 219.871 21.072 220.368 20.9631C220.87 20.8494 221.374 20.7595 221.881 20.6932C222.544 20.608 223.081 20.544 223.493 20.5014C223.91 20.4541 224.213 20.3759 224.402 20.267C224.596 20.1581 224.693 19.9687 224.693 19.6989V19.642C224.693 18.9413 224.501 18.3968 224.118 18.0085C223.739 17.6203 223.164 17.4261 222.392 17.4261C221.592 17.4261 220.964 17.6013 220.51 17.9517C220.055 18.3021 219.736 18.6761 219.551 19.0739L217.96 18.5057C218.244 17.8428 218.623 17.3267 219.097 16.9574C219.575 16.5833 220.096 16.3229 220.659 16.1761C221.227 16.0246 221.786 15.9489 222.335 15.9489C222.686 15.9489 223.088 15.9915 223.543 16.0767C224.002 16.1572 224.445 16.3253 224.871 16.581C225.302 16.8366 225.659 17.2225 225.943 17.7386C226.227 18.2547 226.369 18.946 226.369 19.8125V27H224.693V25.5227H224.608C224.494 25.7595 224.305 26.0128 224.04 26.2827C223.775 26.5526 223.422 26.7822 222.982 26.9716C222.541 27.161 222.004 27.2557 221.369 27.2557ZM221.625 25.75C222.288 25.75 222.847 25.6198 223.301 25.3594C223.76 25.099 224.106 24.7628 224.338 24.3509C224.575 23.9389 224.693 23.5057 224.693 23.0511V21.517C224.622 21.6023 224.466 21.6804 224.224 21.7514C223.988 21.8177 223.713 21.8769 223.401 21.929C223.093 21.9763 222.792 22.0189 222.499 22.0568C222.21 22.09 221.975 22.1184 221.795 22.142C221.36 22.1989 220.953 22.2912 220.574 22.419C220.2 22.5421 219.897 22.7292 219.665 22.9801C219.438 23.2263 219.324 23.5625 219.324 23.9886C219.324 24.571 219.539 25.0114 219.97 25.3097C220.406 25.6032 220.957 25.75 221.625 25.75ZM233.548 27.2273C232.639 27.2273 231.836 26.9976 231.14 26.5384C230.444 26.0743 229.9 25.4209 229.507 24.5781C229.114 23.7306 228.917 22.7292 228.917 21.5739C228.917 20.428 229.114 19.4337 229.507 18.5909C229.9 17.7481 230.447 17.0971 231.147 16.6378C231.848 16.1785 232.658 15.9489 233.576 15.9489C234.287 15.9489 234.848 16.0672 235.26 16.304C235.676 16.536 235.993 16.8011 236.211 17.0994C236.434 17.393 236.607 17.6345 236.73 17.8239H236.872V12.4545H238.548V27H236.929V25.3239H236.73C236.607 25.5227 236.431 25.7737 236.204 26.0767C235.977 26.375 235.653 26.6425 235.231 26.8793C234.81 27.1113 234.249 27.2273 233.548 27.2273ZM233.775 25.7216C234.448 25.7216 235.016 25.5464 235.48 25.196C235.944 24.8409 236.297 24.3509 236.538 23.7259C236.779 23.0961 236.9 22.3693 236.9 21.5455C236.9 20.7311 236.782 20.0185 236.545 19.4077C236.308 18.7921 235.958 18.3139 235.494 17.973C235.03 17.6274 234.457 17.4545 233.775 17.4545C233.065 17.4545 232.473 17.6368 232 18.0014C231.531 18.3613 231.178 18.8513 230.941 19.4716C230.709 20.0871 230.593 20.7784 230.593 21.5455C230.593 22.322 230.712 23.0275 230.949 23.6619C231.19 24.2917 231.545 24.7936 232.014 25.1676C232.487 25.5369 233.074 25.7216 233.775 25.7216ZM245.061 27.2557C244.369 27.2557 243.742 27.1255 243.179 26.8651C242.615 26.5999 242.168 26.2188 241.836 25.7216C241.505 25.2197 241.339 24.6136 241.339 23.9034C241.339 23.2784 241.462 22.7718 241.708 22.3835C241.955 21.9905 242.284 21.6828 242.696 21.4602C243.108 21.2377 243.562 21.072 244.059 20.9631C244.561 20.8494 245.065 20.7595 245.572 20.6932C246.235 20.608 246.772 20.544 247.184 20.5014C247.601 20.4541 247.904 20.3759 248.093 20.267C248.288 20.1581 248.385 19.9687 248.385 19.6989V19.642C248.385 18.9413 248.193 18.3968 247.809 18.0085C247.431 17.6203 246.855 17.4261 246.083 17.4261C245.283 17.4261 244.656 17.6013 244.201 17.9517C243.747 18.3021 243.427 18.6761 243.243 19.0739L241.652 18.5057C241.936 17.8428 242.315 17.3267 242.788 16.9574C243.266 16.5833 243.787 16.3229 244.35 16.1761C244.919 16.0246 245.477 15.9489 246.027 15.9489C246.377 15.9489 246.779 15.9915 247.234 16.0767C247.693 16.1572 248.136 16.3253 248.562 16.581C248.993 16.8366 249.35 17.2225 249.635 17.7386C249.919 18.2547 250.061 18.946 250.061 19.8125V27H248.385V25.5227H248.299C248.186 25.7595 247.996 26.0128 247.731 26.2827C247.466 26.5526 247.113 26.7822 246.673 26.9716C246.233 27.161 245.695 27.2557 245.061 27.2557ZM245.316 25.75C245.979 25.75 246.538 25.6198 246.993 25.3594C247.452 25.099 247.797 24.7628 248.029 24.3509C248.266 23.9389 248.385 23.5057 248.385 23.0511V21.517C248.314 21.6023 248.157 21.6804 247.916 21.7514C247.679 21.8177 247.404 21.8769 247.092 21.929C246.784 21.9763 246.484 22.0189 246.19 22.0568C245.901 22.09 245.667 22.1184 245.487 22.142C245.051 22.1989 244.644 22.2912 244.265 22.419C243.891 22.5421 243.588 22.7292 243.356 22.9801C243.129 23.2263 243.015 23.5625 243.015 23.9886C243.015 24.571 243.231 25.0114 243.662 25.3097C244.097 25.6032 244.649 25.75 245.316 25.75ZM260.847 18.5341L259.342 18.9602C259.247 18.7093 259.107 18.4654 258.923 18.2287C258.743 17.9872 258.496 17.7884 258.184 17.6321C257.871 17.4759 257.471 17.3977 256.984 17.3977C256.316 17.3977 255.76 17.5516 255.315 17.8594C254.874 18.1624 254.654 18.5483 254.654 19.017C254.654 19.4337 254.806 19.7628 255.109 20.0043C255.412 20.2457 255.885 20.447 256.529 20.608L258.148 21.0057C259.124 21.2424 259.851 21.6046 260.329 22.0923C260.807 22.5753 261.046 23.1979 261.046 23.9602C261.046 24.5852 260.866 25.1439 260.506 25.6364C260.151 26.1288 259.654 26.517 259.015 26.8011C258.376 27.0852 257.632 27.2273 256.785 27.2273C255.672 27.2273 254.751 26.9858 254.022 26.5028C253.293 26.0199 252.831 25.3144 252.637 24.3864L254.228 23.9886C254.379 24.5758 254.666 25.0161 255.087 25.3097C255.513 25.6032 256.07 25.75 256.756 25.75C257.538 25.75 258.158 25.5843 258.617 25.2528C259.081 24.9167 259.313 24.5142 259.313 24.0455C259.313 23.6667 259.181 23.3494 258.915 23.0938C258.65 22.8333 258.243 22.6392 257.694 22.5114L255.876 22.0852C254.877 21.8485 254.143 21.4815 253.674 20.9844C253.21 20.4825 252.978 19.8551 252.978 19.1023C252.978 18.4867 253.151 17.9422 253.496 17.4688C253.847 16.9953 254.323 16.6236 254.924 16.3537C255.53 16.0838 256.217 15.9489 256.984 15.9489C258.063 15.9489 258.911 16.1856 259.526 16.6591C260.147 17.1326 260.587 17.7576 260.847 18.5341Z" fill="#122235"/>
<path d="M29.9999 18.3333C29.9999 16.735 28.8666 15.3983 27.3649 15.0767C27.9649 14.075 28.3333 12.9167 28.3333 11.6667C28.3333 7.99 25.3433 5 21.6666 5C19.1383 5 16.9649 6.42833 15.8333 8.50667C14.7016 6.42833 12.5283 5 9.99992 5C6.32325 5 3.33325 7.99 3.33325 11.6667C3.33325 13.17 3.85325 14.545 4.69492 15.66C4.27423 15.9676 3.93179 16.3699 3.69525 16.8343C3.45871 17.2987 3.33471 17.8122 3.33325 18.3333V31.6667C3.33325 33.505 4.82825 35 6.66659 35H26.6666C28.5049 35 29.9999 33.505 29.9999 31.6667V27.27L36.6666 30.6033V18.9367L29.9999 22.27V18.3333ZM21.6666 8.33333C23.5049 8.33333 24.9999 9.82833 24.9999 11.6667C24.9999 13.505 23.5049 15 21.6666 15C19.8283 15 18.3333 13.505 18.3333 11.6667C18.3333 9.82833 19.8283 8.33333 21.6666 8.33333ZM9.99992 8.33333C11.8383 8.33333 13.3333 9.82833 13.3333 11.6667C13.3333 13.505 11.8383 15 9.99992 15C8.16159 15 6.66659 13.505 6.66659 11.6667C6.66659 9.82833 8.16159 8.33333 9.99992 8.33333ZM6.66659 31.6667V18.3333H26.6666L26.6699 31.6667H6.66659Z" fill="#247BA0"/>
</svg>
