<svg width="293" height="40" viewBox="0 0 293 40" fill="none" xmlns="http://www.w3.org/2000/svg">
<path d="M69.4659 17H67.7045C67.6004 16.4934 67.4181 16.0483 67.1577 15.6648C66.902 15.2812 66.5895 14.9593 66.2202 14.6989C65.8556 14.4337 65.4508 14.2348 65.0057 14.1023C64.5606 13.9697 64.0966 13.9034 63.6136 13.9034C62.733 13.9034 61.9351 14.1259 61.2202 14.571C60.5099 15.0161 59.9441 15.6719 59.5227 16.5384C59.1061 17.4048 58.8977 18.4678 58.8977 19.7273C58.8977 20.9867 59.1061 22.0497 59.5227 22.9162C59.9441 23.7827 60.5099 24.4384 61.2202 24.8835C61.9351 25.3286 62.733 25.5511 63.6136 25.5511C64.0966 25.5511 64.5606 25.4848 65.0057 25.3523C65.4508 25.2197 65.8556 25.0232 66.2202 24.7628C66.5895 24.4976 66.902 24.1733 67.1577 23.7898C67.4181 23.4015 67.6004 22.9564 67.7045 22.4545H69.4659C69.3333 23.1979 69.0919 23.8632 68.7415 24.4503C68.3911 25.0374 67.9555 25.5369 67.4347 25.9489C66.9138 26.3561 66.3291 26.6662 65.6804 26.8793C65.0365 27.0923 64.3475 27.1989 63.6136 27.1989C62.3731 27.1989 61.2699 26.8958 60.304 26.2898C59.3381 25.6837 58.5781 24.822 58.0241 23.7045C57.4702 22.5871 57.1932 21.2614 57.1932 19.7273C57.1932 18.1932 57.4702 16.8674 58.0241 15.75C58.5781 14.6326 59.3381 13.7708 60.304 13.1648C61.2699 12.5587 62.3731 12.2557 63.6136 12.2557C64.3475 12.2557 65.0365 12.3622 65.6804 12.5753C66.3291 12.7884 66.9138 13.1009 67.4347 13.5128C67.9555 13.92 68.3911 14.4171 68.7415 15.0043C69.0919 15.5866 69.3333 16.2519 69.4659 17ZM76.6587 27.2273C75.6076 27.2273 74.7009 26.9953 73.9386 26.5312C73.181 26.0625 72.5962 25.4091 72.1843 24.571C71.7771 23.7282 71.5735 22.7481 71.5735 21.6307C71.5735 20.5133 71.7771 19.5284 72.1843 18.6761C72.5962 17.8191 73.1692 17.1515 73.9031 16.6733C74.6417 16.1903 75.5034 15.9489 76.4883 15.9489C77.0565 15.9489 77.6175 16.0436 78.1715 16.233C78.7255 16.4223 79.2298 16.7301 79.6843 17.1562C80.1388 17.5777 80.5011 18.1364 80.771 18.8324C81.0408 19.5284 81.1758 20.3854 81.1758 21.4034V22.1136H72.7667V20.6648H79.4712C79.4712 20.0492 79.3481 19.5 79.1019 19.017C78.8604 18.5341 78.5148 18.1529 78.065 17.8736C77.6199 17.5942 77.0943 17.4545 76.4883 17.4545C75.8207 17.4545 75.243 17.6203 74.7553 17.9517C74.2724 18.2784 73.9007 18.7045 73.6403 19.2301C73.3799 19.7557 73.2496 20.3191 73.2496 20.9205V21.8864C73.2496 22.7102 73.3917 23.4086 73.6758 23.9815C73.9646 24.5497 74.3647 24.983 74.8761 25.2812C75.3874 25.5748 75.9817 25.7216 76.6587 25.7216C77.0991 25.7216 77.4968 25.66 77.8519 25.5369C78.2118 25.4091 78.5219 25.2197 78.7823 24.9688C79.0427 24.7131 79.244 24.3958 79.386 24.017L81.0053 24.4716C80.8349 25.0208 80.5484 25.5038 80.146 25.9205C79.7435 26.3324 79.2463 26.6544 78.6545 26.8864C78.0626 27.1136 77.3974 27.2273 76.6587 27.2273ZM83.7255 27V16.0909H85.3448V17.7386H85.4585C85.6573 17.1989 86.0172 16.7609 86.538 16.4247C87.0588 16.0885 87.646 15.9205 88.2994 15.9205C88.4225 15.9205 88.5763 15.9228 88.761 15.9276C88.9457 15.9323 89.0853 15.9394 89.18 15.9489V17.6534C89.1232 17.6392 88.993 17.6179 88.7894 17.5895C88.5906 17.5563 88.3799 17.5398 88.1573 17.5398C87.627 17.5398 87.1535 17.651 86.7369 17.8736C86.3249 18.0914 85.9982 18.3944 85.7567 18.7827C85.52 19.1662 85.4016 19.6042 85.4016 20.0966V27H83.7255ZM96.5948 16.0909V17.5114H90.9414V16.0909H96.5948ZM92.5891 13.4773H94.2653V23.875C94.2653 24.3485 94.3339 24.7036 94.4712 24.9403C94.6133 25.1723 94.7932 25.3286 95.011 25.4091C95.2335 25.4848 95.4679 25.5227 95.7141 25.5227C95.8988 25.5227 96.0503 25.5133 96.1687 25.4943C96.2871 25.4706 96.3817 25.4517 96.4528 25.4375L96.7937 26.9432C96.68 26.9858 96.5214 27.0284 96.3178 27.071C96.1142 27.1184 95.8562 27.142 95.5437 27.142C95.0702 27.142 94.6062 27.0402 94.1516 26.8366C93.7018 26.633 93.3278 26.3229 93.0295 25.9062C92.7359 25.4896 92.5891 24.964 92.5891 24.3295V13.4773ZM99.1161 27V16.0909H100.792V27H99.1161ZM99.9684 14.2727C99.6417 14.2727 99.36 14.1615 99.1232 13.9389C98.8912 13.7164 98.7752 13.4489 98.7752 13.1364C98.7752 12.8239 98.8912 12.5563 99.1232 12.3338C99.36 12.1113 99.6417 12 99.9684 12C100.295 12 100.574 12.1113 100.806 12.3338C101.043 12.5563 101.162 12.8239 101.162 13.1364C101.162 13.4489 101.043 13.7164 100.806 13.9389C100.574 14.1615 100.295 14.2727 99.9684 14.2727ZM108.72 16.0909V17.5114H102.839V16.0909H108.72ZM104.601 27V14.5852C104.601 13.9602 104.748 13.4394 105.041 13.0227C105.335 12.6061 105.716 12.2936 106.185 12.0852C106.653 11.8769 107.148 11.7727 107.669 11.7727C108.081 11.7727 108.417 11.8059 108.678 11.8722C108.938 11.9384 109.132 12 109.26 12.0568L108.777 13.5057C108.692 13.4773 108.573 13.4418 108.422 13.3991C108.275 13.3565 108.081 13.3352 107.839 13.3352C107.286 13.3352 106.885 13.4749 106.639 13.7543C106.398 14.0336 106.277 14.4432 106.277 14.983V27H104.601ZM111.069 27V16.0909H112.745V27H111.069ZM111.922 14.2727C111.595 14.2727 111.313 14.1615 111.076 13.9389C110.844 13.7164 110.728 13.4489 110.728 13.1364C110.728 12.8239 110.844 12.5563 111.076 12.3338C111.313 12.1113 111.595 12 111.922 12C112.248 12 112.528 12.1113 112.76 12.3338C112.996 12.5563 113.115 12.8239 113.115 13.1364C113.115 13.4489 112.996 13.7164 112.76 13.9389C112.528 14.1615 112.248 14.2727 111.922 14.2727ZM120.247 27.2273C119.224 27.2273 118.344 26.9858 117.605 26.5028C116.866 26.0199 116.298 25.3546 115.901 24.5071C115.503 23.6596 115.304 22.6913 115.304 21.6023C115.304 20.4943 115.508 19.5166 115.915 18.669C116.327 17.8168 116.9 17.1515 117.634 16.6733C118.372 16.1903 119.234 15.9489 120.219 15.9489C120.986 15.9489 121.677 16.0909 122.293 16.375C122.908 16.6591 123.412 17.0568 123.805 17.5682C124.198 18.0795 124.442 18.6761 124.537 19.358H122.861C122.733 18.8608 122.449 18.4205 122.009 18.0369C121.573 17.6487 120.986 17.4545 120.247 17.4545C119.594 17.4545 119.021 17.625 118.528 17.9659C118.041 18.3021 117.66 18.7779 117.385 19.3935C117.115 20.0043 116.98 20.7216 116.98 21.5455C116.98 22.3883 117.113 23.1222 117.378 23.7472C117.648 24.3722 118.027 24.8575 118.514 25.2031C119.007 25.5488 119.584 25.7216 120.247 25.7216C120.683 25.7216 121.078 25.6458 121.433 25.4943C121.788 25.3428 122.089 25.125 122.335 24.8409C122.581 24.5568 122.757 24.2159 122.861 23.8182H124.537C124.442 24.4621 124.208 25.0421 123.834 25.5582C123.464 26.0696 122.974 26.4768 122.364 26.7798C121.758 27.0781 121.052 27.2273 120.247 27.2273ZM130.197 27.2557C129.506 27.2557 128.879 27.1255 128.315 26.8651C127.752 26.5999 127.304 26.2188 126.973 25.7216C126.642 25.2197 126.476 24.6136 126.476 23.9034C126.476 23.2784 126.599 22.7718 126.845 22.3835C127.091 21.9905 127.42 21.6828 127.832 21.4602C128.244 21.2377 128.699 21.072 129.196 20.9631C129.698 20.8494 130.202 20.7595 130.709 20.6932C131.372 20.608 131.909 20.544 132.321 20.5014C132.738 20.4541 133.041 20.3759 133.23 20.267C133.424 20.1581 133.521 19.9687 133.521 19.6989V19.642C133.521 18.9413 133.33 18.3968 132.946 18.0085C132.567 17.6203 131.992 17.4261 131.22 17.4261C130.42 17.4261 129.793 17.6013 129.338 17.9517C128.884 18.3021 128.564 18.6761 128.379 19.0739L126.788 18.5057C127.072 17.8428 127.451 17.3267 127.925 16.9574C128.403 16.5833 128.924 16.3229 129.487 16.1761C130.055 16.0246 130.614 15.9489 131.163 15.9489C131.514 15.9489 131.916 15.9915 132.371 16.0767C132.83 16.1572 133.273 16.3253 133.699 16.581C134.13 16.8366 134.487 17.2225 134.771 17.7386C135.055 18.2547 135.197 18.946 135.197 19.8125V27H133.521V25.5227H133.436C133.322 25.7595 133.133 26.0128 132.868 26.2827C132.603 26.5526 132.25 26.7822 131.81 26.9716C131.369 27.161 130.832 27.2557 130.197 27.2557ZM130.453 25.75C131.116 25.75 131.675 25.6198 132.129 25.3594C132.589 25.099 132.934 24.7628 133.166 24.3509C133.403 23.9389 133.521 23.5057 133.521 23.0511V21.517C133.45 21.6023 133.294 21.6804 133.053 21.7514C132.816 21.8177 132.541 21.8769 132.229 21.929C131.921 21.9763 131.62 22.0189 131.327 22.0568C131.038 22.09 130.804 22.1184 130.624 22.142C130.188 22.1989 129.781 22.2912 129.402 22.419C129.028 22.5421 128.725 22.7292 128.493 22.9801C128.266 23.2263 128.152 23.5625 128.152 23.9886C128.152 24.571 128.367 25.0114 128.798 25.3097C129.234 25.6032 129.786 25.75 130.453 25.75ZM142.376 27.2273C141.467 27.2273 140.664 26.9976 139.968 26.5384C139.272 26.0743 138.728 25.4209 138.335 24.5781C137.942 23.7306 137.745 22.7292 137.745 21.5739C137.745 20.428 137.942 19.4337 138.335 18.5909C138.728 17.7481 139.275 17.0971 139.975 16.6378C140.676 16.1785 141.486 15.9489 142.404 15.9489C143.115 15.9489 143.676 16.0672 144.088 16.304C144.504 16.536 144.822 16.8011 145.039 17.0994C145.262 17.393 145.435 17.6345 145.558 17.8239H145.7V12.4545H147.376V27H145.757V25.3239H145.558C145.435 25.5227 145.26 25.7737 145.032 26.0767C144.805 26.375 144.481 26.6425 144.059 26.8793C143.638 27.1113 143.077 27.2273 142.376 27.2273ZM142.603 25.7216C143.276 25.7216 143.844 25.5464 144.308 25.196C144.772 24.8409 145.125 24.3509 145.366 23.7259C145.608 23.0961 145.728 22.3693 145.728 21.5455C145.728 20.7311 145.61 20.0185 145.373 19.4077C145.136 18.7921 144.786 18.3139 144.322 17.973C143.858 17.6274 143.285 17.4545 142.603 17.4545C141.893 17.4545 141.301 17.6368 140.828 18.0014C140.359 18.3613 140.006 18.8513 139.77 19.4716C139.538 20.0871 139.422 20.7784 139.422 21.5455C139.422 22.322 139.54 23.0275 139.777 23.6619C140.018 24.2917 140.373 24.7936 140.842 25.1676C141.315 25.5369 141.903 25.7216 142.603 25.7216ZM155.11 27.2273C154.126 27.2273 153.261 26.9929 152.518 26.5241C151.779 26.0554 151.202 25.3996 150.785 24.5568C150.373 23.714 150.167 22.7292 150.167 21.6023C150.167 20.4659 150.373 19.474 150.785 18.6264C151.202 17.7789 151.779 17.1207 152.518 16.652C153.261 16.1832 154.126 15.9489 155.11 15.9489C156.095 15.9489 156.957 16.1832 157.696 16.652C158.439 17.1207 159.017 17.7789 159.429 18.6264C159.845 19.474 160.054 20.4659 160.054 21.6023C160.054 22.7292 159.845 23.714 159.429 24.5568C159.017 25.3996 158.439 26.0554 157.696 26.5241C156.957 26.9929 156.095 27.2273 155.11 27.2273ZM155.11 25.7216C155.859 25.7216 156.474 25.5298 156.957 25.1463C157.44 24.7628 157.797 24.2585 158.029 23.6335C158.261 23.0085 158.377 22.3314 158.377 21.6023C158.377 20.8731 158.261 20.1937 158.029 19.5639C157.797 18.9342 157.44 18.4252 156.957 18.0369C156.474 17.6487 155.859 17.4545 155.11 17.4545C154.362 17.4545 153.747 17.6487 153.264 18.0369C152.781 18.4252 152.423 18.9342 152.191 19.5639C151.959 20.1937 151.843 20.8731 151.843 21.6023C151.843 22.3314 151.959 23.0085 152.191 23.6335C152.423 24.2585 152.781 24.7628 153.264 25.1463C153.747 25.5298 154.362 25.7216 155.11 25.7216ZM172.357 27.2273C171.447 27.2273 170.645 26.9976 169.949 26.5384C169.253 26.0743 168.708 25.4209 168.315 24.5781C167.922 23.7306 167.726 22.7292 167.726 21.5739C167.726 20.428 167.922 19.4337 168.315 18.5909C168.708 17.7481 169.255 17.0971 169.956 16.6378C170.657 16.1785 171.466 15.9489 172.385 15.9489C173.095 15.9489 173.656 16.0672 174.068 16.304C174.485 16.536 174.802 16.8011 175.02 17.0994C175.242 17.393 175.415 17.6345 175.538 17.8239H175.68V12.4545H177.357V27H175.737V25.3239H175.538C175.415 25.5227 175.24 25.7737 175.013 26.0767C174.786 26.375 174.461 26.6425 174.04 26.8793C173.618 27.1113 173.057 27.2273 172.357 27.2273ZM172.584 25.7216C173.256 25.7216 173.824 25.5464 174.288 25.196C174.752 24.8409 175.105 24.3509 175.347 23.7259C175.588 23.0961 175.709 22.3693 175.709 21.5455C175.709 20.7311 175.59 20.0185 175.354 19.4077C175.117 18.7921 174.767 18.3139 174.303 17.973C173.839 17.6274 173.266 17.4545 172.584 17.4545C171.874 17.4545 171.282 17.6368 170.808 18.0014C170.339 18.3613 169.987 18.8513 169.75 19.4716C169.518 20.0871 169.402 20.7784 169.402 21.5455C169.402 22.322 169.52 23.0275 169.757 23.6619C169.999 24.2917 170.354 24.7936 170.822 25.1676C171.296 25.5369 171.883 25.7216 172.584 25.7216ZM185.233 27.2273C184.182 27.2273 183.275 26.9953 182.513 26.5312C181.755 26.0625 181.17 25.4091 180.759 24.571C180.351 23.7282 180.148 22.7481 180.148 21.6307C180.148 20.5133 180.351 19.5284 180.759 18.6761C181.17 17.8191 181.743 17.1515 182.477 16.6733C183.216 16.1903 184.078 15.9489 185.062 15.9489C185.631 15.9489 186.192 16.0436 186.746 16.233C187.3 16.4223 187.804 16.7301 188.259 17.1562C188.713 17.5777 189.075 18.1364 189.345 18.8324C189.615 19.5284 189.75 20.3854 189.75 21.4034V22.1136H181.341V20.6648H188.045C188.045 20.0492 187.922 19.5 187.676 19.017C187.435 18.5341 187.089 18.1529 186.639 17.8736C186.194 17.5942 185.669 17.4545 185.062 17.4545C184.395 17.4545 183.817 17.6203 183.33 17.9517C182.847 18.2784 182.475 18.7045 182.214 19.2301C181.954 19.7557 181.824 20.3191 181.824 20.9205V21.8864C181.824 22.7102 181.966 23.4086 182.25 23.9815C182.539 24.5497 182.939 24.983 183.45 25.2812C183.962 25.5748 184.556 25.7216 185.233 25.7216C185.673 25.7216 186.071 25.66 186.426 25.5369C186.786 25.4091 187.096 25.2197 187.357 24.9688C187.617 24.7131 187.818 24.3958 187.96 24.017L189.58 24.4716C189.409 25.0208 189.123 25.5038 188.72 25.9205C188.318 26.3324 187.821 26.6544 187.229 26.8864C186.637 27.1136 185.972 27.2273 185.233 27.2273ZM202.357 27.2273C201.334 27.2273 200.453 26.9858 199.714 26.5028C198.976 26.0199 198.408 25.3546 198.01 24.5071C197.612 23.6596 197.413 22.6913 197.413 21.6023C197.413 20.4943 197.617 19.5166 198.024 18.669C198.436 17.8168 199.009 17.1515 199.743 16.6733C200.482 16.1903 201.343 15.9489 202.328 15.9489C203.095 15.9489 203.786 16.0909 204.402 16.375C205.018 16.6591 205.522 17.0568 205.915 17.5682C206.308 18.0795 206.552 18.6761 206.646 19.358H204.97C204.842 18.8608 204.558 18.4205 204.118 18.0369C203.682 17.6487 203.095 17.4545 202.357 17.4545C201.703 17.4545 201.13 17.625 200.638 17.9659C200.15 18.3021 199.769 18.7779 199.494 19.3935C199.224 20.0043 199.089 20.7216 199.089 21.5455C199.089 22.3883 199.222 23.1222 199.487 23.7472C199.757 24.3722 200.136 24.8575 200.624 25.2031C201.116 25.5488 201.694 25.7216 202.357 25.7216C202.792 25.7216 203.188 25.6458 203.543 25.4943C203.898 25.3428 204.198 25.125 204.445 24.8409C204.691 24.5568 204.866 24.2159 204.97 23.8182H206.646C206.552 24.4621 206.317 25.0421 205.943 25.5582C205.574 26.0696 205.084 26.4768 204.473 26.7798C203.867 27.0781 203.161 27.2273 202.357 27.2273ZM213.528 27.2273C212.544 27.2273 211.679 26.9929 210.936 26.5241C210.197 26.0554 209.62 25.3996 209.203 24.5568C208.791 23.714 208.585 22.7292 208.585 21.6023C208.585 20.4659 208.791 19.474 209.203 18.6264C209.62 17.7789 210.197 17.1207 210.936 16.652C211.679 16.1832 212.544 15.9489 213.528 15.9489C214.513 15.9489 215.375 16.1832 216.114 16.652C216.857 17.1207 217.435 17.7789 217.847 18.6264C218.263 19.474 218.472 20.4659 218.472 21.6023C218.472 22.7292 218.263 23.714 217.847 24.5568C217.435 25.3996 216.857 26.0554 216.114 26.5241C215.375 26.9929 214.513 27.2273 213.528 27.2273ZM213.528 25.7216C214.277 25.7216 214.892 25.5298 215.375 25.1463C215.858 24.7628 216.215 24.2585 216.447 23.6335C216.679 23.0085 216.795 22.3314 216.795 21.6023C216.795 20.8731 216.679 20.1937 216.447 19.5639C216.215 18.9342 215.858 18.4252 215.375 18.0369C214.892 17.6487 214.277 17.4545 213.528 17.4545C212.78 17.4545 212.165 17.6487 211.682 18.0369C211.199 18.4252 210.841 18.9342 210.609 19.5639C210.377 20.1937 210.261 20.8731 210.261 21.6023C210.261 22.3314 210.377 23.0085 210.609 23.6335C210.841 24.2585 211.199 24.7628 211.682 25.1463C212.165 25.5298 212.78 25.7216 213.528 25.7216ZM222.706 20.4375V27H221.03V16.0909H222.65V17.7955H222.792C223.047 17.2415 223.435 16.7964 223.956 16.4602C224.477 16.1193 225.15 15.9489 225.973 15.9489C226.712 15.9489 227.358 16.1004 227.912 16.4034C228.466 16.7017 228.897 17.1562 229.205 17.767C229.513 18.3731 229.667 19.1402 229.667 20.0682V27H227.99V20.1818C227.99 19.3248 227.768 18.6572 227.323 18.179C226.878 17.696 226.267 17.4545 225.49 17.4545C224.955 17.4545 224.477 17.5705 224.056 17.8026C223.639 18.0346 223.31 18.3731 223.069 18.8182C222.827 19.2633 222.706 19.803 222.706 20.4375ZM237.161 27.2273C236.138 27.2273 235.258 26.9858 234.519 26.5028C233.781 26.0199 233.212 25.3546 232.815 24.5071C232.417 23.6596 232.218 22.6913 232.218 21.6023C232.218 20.4943 232.422 19.5166 232.829 18.669C233.241 17.8168 233.814 17.1515 234.548 16.6733C235.286 16.1903 236.148 15.9489 237.133 15.9489C237.9 15.9489 238.591 16.0909 239.207 16.375C239.822 16.6591 240.326 17.0568 240.719 17.5682C241.112 18.0795 241.356 18.6761 241.451 19.358H239.775C239.647 18.8608 239.363 18.4205 238.923 18.0369C238.487 17.6487 237.9 17.4545 237.161 17.4545C236.508 17.4545 235.935 17.625 235.442 17.9659C234.955 18.3021 234.574 18.7779 234.299 19.3935C234.029 20.0043 233.894 20.7216 233.894 21.5455C233.894 22.3883 234.027 23.1222 234.292 23.7472C234.562 24.3722 234.941 24.8575 235.428 25.2031C235.921 25.5488 236.498 25.7216 237.161 25.7216C237.597 25.7216 237.992 25.6458 238.347 25.4943C238.702 25.3428 239.003 25.125 239.249 24.8409C239.496 24.5568 239.671 24.2159 239.775 23.8182H241.451C241.356 24.4621 241.122 25.0421 240.748 25.5582C240.379 26.0696 239.888 26.4768 239.278 26.7798C238.672 27.0781 237.966 27.2273 237.161 27.2273ZM245.577 12.4545V27H243.901V12.4545H245.577ZM255.522 22.5398V16.0909H257.199V27H255.522V25.1534H255.409C255.153 25.7074 254.755 26.1785 254.216 26.5668C253.676 26.9503 252.994 27.142 252.17 27.142C251.488 27.142 250.882 26.9929 250.352 26.6946C249.822 26.3916 249.405 25.937 249.102 25.331C248.799 24.7202 248.647 23.9508 248.647 23.0227V16.0909H250.324V22.9091C250.324 23.7045 250.546 24.339 250.991 24.8125C251.441 25.286 252.014 25.5227 252.71 25.5227C253.127 25.5227 253.55 25.4162 253.981 25.2031C254.417 24.9901 254.781 24.6634 255.075 24.223C255.373 23.7827 255.522 23.2216 255.522 22.5398ZM267.996 18.5341L266.49 18.9602C266.395 18.7093 266.256 18.4654 266.071 18.2287C265.891 17.9872 265.645 17.7884 265.332 17.6321C265.02 17.4759 264.62 17.3977 264.132 17.3977C263.464 17.3977 262.908 17.5516 262.463 17.8594C262.023 18.1624 261.803 18.5483 261.803 19.017C261.803 19.4337 261.954 19.7628 262.257 20.0043C262.56 20.2457 263.034 20.447 263.678 20.608L265.297 21.0057C266.272 21.2424 266.999 21.6046 267.477 22.0923C267.955 22.5753 268.195 23.1979 268.195 23.9602C268.195 24.5852 268.015 25.1439 267.655 25.6364C267.3 26.1288 266.803 26.517 266.163 26.8011C265.524 27.0852 264.781 27.2273 263.933 27.2273C262.821 27.2273 261.9 26.9858 261.17 26.5028C260.441 26.0199 259.98 25.3144 259.786 24.3864L261.376 23.9886C261.528 24.5758 261.814 25.0161 262.236 25.3097C262.662 25.6032 263.218 25.75 263.905 25.75C264.686 25.75 265.306 25.5843 265.766 25.2528C266.23 24.9167 266.462 24.5142 266.462 24.0455C266.462 23.6667 266.329 23.3494 266.064 23.0938C265.799 22.8333 265.392 22.6392 264.842 22.5114L263.024 22.0852C262.025 21.8485 261.291 21.4815 260.822 20.9844C260.358 20.4825 260.126 19.8551 260.126 19.1023C260.126 18.4867 260.299 17.9422 260.645 17.4688C260.995 16.9953 261.471 16.6236 262.072 16.3537C262.679 16.0838 263.365 15.9489 264.132 15.9489C265.212 15.9489 266.059 16.1856 266.675 16.6591C267.295 17.1326 267.735 17.7576 267.996 18.5341ZM273.928 27.2557C273.237 27.2557 272.609 27.1255 272.046 26.8651C271.482 26.5999 271.035 26.2188 270.703 25.7216C270.372 25.2197 270.206 24.6136 270.206 23.9034C270.206 23.2784 270.329 22.7718 270.576 22.3835C270.822 21.9905 271.151 21.6828 271.563 21.4602C271.975 21.2377 272.429 21.072 272.926 20.9631C273.428 20.8494 273.933 20.7595 274.439 20.6932C275.102 20.608 275.64 20.544 276.051 20.5014C276.468 20.4541 276.771 20.3759 276.961 20.267C277.155 20.1581 277.252 19.9687 277.252 19.6989V19.642C277.252 18.9413 277.06 18.3968 276.676 18.0085C276.298 17.6203 275.722 17.4261 274.951 17.4261C274.15 17.4261 273.523 17.6013 273.069 17.9517C272.614 18.3021 272.294 18.6761 272.11 19.0739L270.519 18.5057C270.803 17.8428 271.182 17.3267 271.655 16.9574C272.133 16.5833 272.654 16.3229 273.218 16.1761C273.786 16.0246 274.345 15.9489 274.894 15.9489C275.244 15.9489 275.647 15.9915 276.101 16.0767C276.56 16.1572 277.003 16.3253 277.429 16.581C277.86 16.8366 278.218 17.2225 278.502 17.7386C278.786 18.2547 278.928 18.946 278.928 19.8125V27H277.252V25.5227H277.167C277.053 25.7595 276.864 26.0128 276.598 26.2827C276.333 26.5526 275.98 26.7822 275.54 26.9716C275.1 27.161 274.562 27.2557 273.928 27.2557ZM274.184 25.75C274.846 25.75 275.405 25.6198 275.86 25.3594C276.319 25.099 276.665 24.7628 276.897 24.3509C277.133 23.9389 277.252 23.5057 277.252 23.0511V21.517C277.181 21.6023 277.025 21.6804 276.783 21.7514C276.546 21.8177 276.272 21.8769 275.959 21.929C275.651 21.9763 275.351 22.0189 275.057 22.0568C274.768 22.09 274.534 22.1184 274.354 22.142C273.918 22.1989 273.511 22.2912 273.132 22.419C272.758 22.5421 272.455 22.7292 272.223 22.9801C271.996 23.2263 271.882 23.5625 271.882 23.9886C271.882 24.571 272.098 25.0114 272.529 25.3097C272.964 25.6032 273.516 25.75 274.184 25.75ZM272.82 14.7841L271.513 14.7273C271.513 14.0028 271.719 13.411 272.131 12.9517C272.548 12.4877 273.061 12.2557 273.672 12.2557C273.942 12.2557 274.181 12.303 274.39 12.3977C274.598 12.4877 274.797 12.5919 274.986 12.7102C275.176 12.8286 275.37 12.9351 275.569 13.0298C275.772 13.1198 276.002 13.1648 276.257 13.1648C276.527 13.1648 276.755 13.0606 276.939 12.8523C277.129 12.6392 277.223 12.3835 277.223 12.0852L278.502 12.1989C278.502 12.9375 278.293 13.5246 277.877 13.9602C277.465 14.3958 276.953 14.6136 276.343 14.6136C276.016 14.6136 275.746 14.5687 275.533 14.4787C275.32 14.384 275.131 14.2775 274.965 14.1591C274.799 14.0407 274.624 13.9366 274.439 13.8466C274.255 13.7519 274.027 13.7045 273.757 13.7045C273.488 13.7045 273.263 13.8111 273.083 14.0241C272.908 14.2325 272.82 14.4858 272.82 14.7841ZM286.419 27.2273C285.434 27.2273 284.57 26.9929 283.827 26.5241C283.088 26.0554 282.51 25.3996 282.094 24.5568C281.682 23.714 281.476 22.7292 281.476 21.6023C281.476 20.4659 281.682 19.474 282.094 18.6264C282.51 17.7789 283.088 17.1207 283.827 16.652C284.57 16.1832 285.434 15.9489 286.419 15.9489C287.404 15.9489 288.266 16.1832 289.004 16.652C289.748 17.1207 290.325 17.7789 290.737 18.6264C291.154 19.474 291.362 20.4659 291.362 21.6023C291.362 22.7292 291.154 23.714 290.737 24.5568C290.325 25.3996 289.748 26.0554 289.004 26.5241C288.266 26.9929 287.404 27.2273 286.419 27.2273ZM286.419 25.7216C287.167 25.7216 287.783 25.5298 288.266 25.1463C288.749 24.7628 289.106 24.2585 289.338 23.6335C289.57 23.0085 289.686 22.3314 289.686 21.6023C289.686 20.8731 289.57 20.1937 289.338 19.5639C289.106 18.9342 288.749 18.4252 288.266 18.0369C287.783 17.6487 287.167 17.4545 286.419 17.4545C285.671 17.4545 285.055 17.6487 284.572 18.0369C284.089 18.4252 283.732 18.9342 283.5 19.5639C283.268 20.1937 283.152 20.8731 283.152 21.6023C283.152 22.3314 283.268 23.0085 283.5 23.6335C283.732 24.2585 284.089 24.7628 284.572 25.1463C285.055 25.5298 285.671 25.7216 286.419 25.7216Z" fill="#122235"/>
<path d="M31.576 14.8987C32.9947 14.898 34.3834 15.304 35.5753 16.0678C36.7672 16.8317 37.7117 17.9209 38.2952 19.2048C38.8787 20.4886 39.0765 21.9124 38.8648 23.3051C38.6531 24.6978 38.0409 26.0002 37.1017 27.0559V35.4678C37.1022 35.7026 37.042 35.9336 36.9267 36.1387C36.8115 36.3438 36.6452 36.516 36.4437 36.639C36.2422 36.7619 36.0123 36.8315 35.776 36.841C35.5397 36.8504 35.3049 36.7995 35.0941 36.693L34.9283 36.5925L31.576 34.2664L28.2237 36.5925C28.0301 36.7267 27.8051 36.8094 27.5701 36.8327C27.3352 36.856 27.0981 36.8191 26.8816 36.7256C26.6651 36.632 26.4763 36.4849 26.3334 36.2984C26.1904 36.1118 26.098 35.892 26.0649 35.6598L26.0521 35.4678V27.0522C25.1142 25.9965 24.503 24.6946 24.2919 23.3027C24.0807 21.9108 24.2786 20.4879 24.8618 19.2048C25.445 17.9218 26.3886 16.833 27.5796 16.0692C28.7705 15.3054 30.1582 14.899 31.576 14.8987ZM34.3389 28.9979C33.461 29.3504 32.5229 29.531 31.576 29.5301C30.6291 29.531 29.6909 29.3504 28.8131 28.9979V32.8363L30.7858 31.4703C30.9877 31.3298 31.2239 31.2455 31.4697 31.2262C31.7156 31.2069 31.9621 31.2533 32.1838 31.3606L32.368 31.4703L34.3389 32.8363V28.9979ZM33.8784 2.10522C35.1683 2.10516 36.4096 2.59365 37.3491 3.47106C38.2887 4.34847 38.8557 5.54868 38.9345 6.8269L38.9437 7.13412L38.9455 16.7274C38.1985 15.7401 37.2589 14.9123 36.1826 14.2934L36.1808 7.13412C36.181 6.56822 35.9699 6.02233 35.5881 5.60211C35.2063 5.18188 34.6811 4.91718 34.1141 4.85923L33.8784 4.84826H7.17051C6.60051 4.848 6.05068 5.05766 5.62741 5.43668C5.20414 5.8157 4.93753 6.33712 4.87916 6.90005L4.86811 7.13412V24.5067C4.86811 25.6898 5.77433 26.6645 6.93474 26.7797L7.17051 26.7925L23.6041 26.7943L23.8307 27.1656L24.0775 27.524L24.2083 27.6959L24.2064 29.5356H7.17051C5.88034 29.5356 4.63877 29.0468 3.69918 28.1691C2.75959 27.2913 2.19278 26.0906 2.11443 24.812L2.10522 24.5067V7.13412C2.10516 5.85351 2.59719 4.62112 3.48094 3.68832C4.3647 2.75553 5.5736 2.1926 6.86107 2.11437L7.17051 2.10522H33.8784ZM31.576 17.6418C30.3545 17.6418 29.183 18.1235 28.3192 18.9811C27.4555 19.8386 26.9703 21.0017 26.9703 22.2144C26.9703 23.4271 27.4555 24.5902 28.3192 25.4477C29.183 26.3053 30.3545 26.787 31.576 26.787C32.7975 26.787 33.969 26.3053 34.8327 25.4477C35.6965 24.5902 36.1817 23.4271 36.1817 22.2144C36.1817 21.0017 35.6965 19.8386 34.8327 18.9811C33.969 18.1235 32.7975 17.6418 31.576 17.6418ZM19.143 19.4705C19.493 19.4706 19.8299 19.6026 20.0857 19.8398C20.3414 20.077 20.497 20.4018 20.5208 20.7485C20.5447 21.0952 20.4351 21.4379 20.2142 21.7075C19.9933 21.977 19.6776 22.1533 19.3309 22.2007L19.143 22.2135H10.8544C10.5043 22.2134 10.1674 22.0814 9.91167 21.8441C9.65592 21.6069 9.50041 21.2821 9.47655 20.9354C9.45269 20.5888 9.56227 20.246 9.78315 19.9764C10.004 19.7069 10.3197 19.5306 10.6665 19.4833L10.8544 19.4705H19.143ZM30.1945 9.41266C30.5445 9.41277 30.8815 9.54478 31.1372 9.78201C31.393 10.0192 31.5485 10.344 31.5723 10.6907C31.5962 11.0374 31.4866 11.3801 31.2657 11.6497C31.0449 11.9193 30.7292 12.0955 30.3824 12.1429L30.1945 12.1557H10.8544C10.5043 12.1556 10.1674 12.0236 9.91167 11.7864C9.65592 11.5491 9.50041 11.2243 9.47655 10.8777C9.45269 10.531 9.56227 10.1882 9.78315 9.91866C10.004 9.6491 10.3197 9.47283 10.6665 9.42546L10.8544 9.41266H30.1945Z" fill="#247BA0"/>
</svg>
