<svg width="253" height="42" viewBox="0 0 253 42" fill="none" xmlns="http://www.w3.org/2000/svg">
<path d="M57.1648 25.017V23.5682L63.5568 13.4545H64.608V15.6989H63.8977L59.0682 23.3409V23.4545H67.6761V25.017H57.1648ZM64.0114 28V24.5767V23.902V13.4545H65.6875V28H64.0114ZM77.6673 21.4375V28H75.9911V13.4545H77.6673V18.7955H77.8093C78.065 18.232 78.4485 17.7846 78.9599 17.4531C79.476 17.117 80.1625 16.9489 81.0195 16.9489C81.7629 16.9489 82.4139 17.098 82.9727 17.3963C83.5314 17.6899 83.9646 18.142 84.2724 18.7528C84.5849 19.3589 84.7411 20.1307 84.7411 21.0682V28H83.065V21.1818C83.065 20.3153 82.8401 19.6454 82.3903 19.1719C81.9452 18.6937 81.3273 18.4545 80.5366 18.4545C79.9873 18.4545 79.4949 18.5705 79.0593 18.8026C78.6284 19.0346 78.2875 19.3731 78.0366 19.8182C77.7904 20.2633 77.6673 20.803 77.6673 21.4375ZM92.2393 28.2273C91.2545 28.2273 90.3904 27.9929 89.647 27.5241C88.9084 27.0554 88.3307 26.3996 87.9141 25.5568C87.5021 24.714 87.2962 23.7292 87.2962 22.6023C87.2962 21.4659 87.5021 20.474 87.9141 19.6264C88.3307 18.7789 88.9084 18.1207 89.647 17.652C90.3904 17.1832 91.2545 16.9489 92.2393 16.9489C93.2242 16.9489 94.0859 17.1832 94.8246 17.652C95.5679 18.1207 96.1456 18.7789 96.5575 19.6264C96.9742 20.474 97.1825 21.4659 97.1825 22.6023C97.1825 23.7292 96.9742 24.714 96.5575 25.5568C96.1456 26.3996 95.5679 27.0554 94.8246 27.5241C94.0859 27.9929 93.2242 28.2273 92.2393 28.2273ZM92.2393 26.7216C92.9875 26.7216 93.603 26.5298 94.0859 26.1463C94.5689 25.7628 94.9264 25.2585 95.1584 24.6335C95.3904 24.0085 95.5064 23.3314 95.5064 22.6023C95.5064 21.8731 95.3904 21.1937 95.1584 20.5639C94.9264 19.9342 94.5689 19.4252 94.0859 19.0369C93.603 18.6487 92.9875 18.4545 92.2393 18.4545C91.4912 18.4545 90.8757 18.6487 90.3928 19.0369C89.9098 19.4252 89.5523 19.9342 89.3203 20.5639C89.0883 21.1937 88.9723 21.8731 88.9723 22.6023C88.9723 23.3314 89.0883 24.0085 89.3203 24.6335C89.5523 25.2585 89.9098 25.7628 90.3928 26.1463C90.8757 26.5298 91.4912 26.7216 92.2393 26.7216ZM99.7411 28V17.0909H101.36V18.7386H101.474C101.673 18.1989 102.033 17.7609 102.554 17.4247C103.074 17.0885 103.662 16.9205 104.315 16.9205C104.438 16.9205 104.592 16.9228 104.777 16.9276C104.961 16.9323 105.101 16.9394 105.196 16.9489V18.6534C105.139 18.6392 105.009 18.6179 104.805 18.5895C104.606 18.5563 104.395 18.5398 104.173 18.5398C103.643 18.5398 103.169 18.651 102.752 18.8736C102.341 19.0914 102.014 19.3944 101.772 19.7827C101.536 20.1662 101.417 20.6042 101.417 21.0966V28H99.7411ZM110.393 28.2557C109.701 28.2557 109.074 28.1255 108.511 27.8651C107.947 27.5999 107.5 27.2188 107.168 26.7216C106.837 26.2197 106.671 25.6136 106.671 24.9034C106.671 24.2784 106.794 23.7718 107.04 23.3835C107.287 22.9905 107.616 22.6828 108.028 22.4602C108.44 22.2377 108.894 22.072 109.391 21.9631C109.893 21.8494 110.397 21.7595 110.904 21.6932C111.567 21.608 112.104 21.544 112.516 21.5014C112.933 21.4541 113.236 21.3759 113.425 21.267C113.62 21.1581 113.717 20.9687 113.717 20.6989V20.642C113.717 19.9413 113.525 19.3968 113.141 19.0085C112.763 18.6203 112.187 18.4261 111.415 18.4261C110.615 18.4261 109.988 18.6013 109.533 18.9517C109.079 19.3021 108.759 19.6761 108.575 20.0739L106.984 19.5057C107.268 18.8428 107.647 18.3267 108.12 17.9574C108.598 17.5833 109.119 17.3229 109.683 17.1761C110.251 17.0246 110.809 16.9489 111.359 16.9489C111.709 16.9489 112.112 16.9915 112.566 17.0767C113.025 17.1572 113.468 17.3253 113.894 17.581C114.325 17.8366 114.683 18.2225 114.967 18.7386C115.251 19.2547 115.393 19.946 115.393 20.8125V28H113.717V26.5227H113.631C113.518 26.7595 113.328 27.0128 113.063 27.2827C112.798 27.5526 112.445 27.7822 112.005 27.9716C111.565 28.161 111.027 28.2557 110.393 28.2557ZM110.648 26.75C111.311 26.75 111.87 26.6198 112.325 26.3594C112.784 26.099 113.129 25.7628 113.362 25.3509C113.598 24.9389 113.717 24.5057 113.717 24.0511V22.517C113.646 22.6023 113.489 22.6804 113.248 22.7514C113.011 22.8177 112.737 22.8769 112.424 22.929C112.116 22.9763 111.816 23.0189 111.522 23.0568C111.233 23.09 110.999 23.1184 110.819 23.142C110.383 23.1989 109.976 23.2912 109.597 23.419C109.223 23.5421 108.92 23.7292 108.688 23.9801C108.461 24.2263 108.347 24.5625 108.347 24.9886C108.347 25.571 108.563 26.0114 108.994 26.3097C109.429 26.6032 109.981 26.75 110.648 26.75ZM126.179 19.5341L124.674 19.9602C124.579 19.7093 124.439 19.4654 124.255 19.2287C124.075 18.9872 123.828 18.7884 123.516 18.6321C123.203 18.4759 122.803 18.3977 122.316 18.3977C121.648 18.3977 121.092 18.5516 120.647 18.8594C120.206 19.1624 119.986 19.5483 119.986 20.017C119.986 20.4337 120.138 20.7628 120.441 21.0043C120.744 21.2457 121.217 21.447 121.861 21.608L123.48 22.0057C124.456 22.2424 125.183 22.6046 125.661 23.0923C126.139 23.5753 126.378 24.1979 126.378 24.9602C126.378 25.5852 126.198 26.1439 125.838 26.6364C125.483 27.1288 124.986 27.517 124.347 27.8011C123.708 28.0852 122.964 28.2273 122.117 28.2273C121.004 28.2273 120.083 27.9858 119.354 27.5028C118.625 27.0199 118.163 26.3144 117.969 25.3864L119.56 24.9886C119.712 25.5758 119.998 26.0161 120.419 26.3097C120.846 26.6032 121.402 26.75 122.088 26.75C122.87 26.75 123.49 26.5843 123.949 26.2528C124.413 25.9167 124.645 25.5142 124.645 25.0455C124.645 24.6667 124.513 24.3494 124.248 24.0938C123.982 23.8333 123.575 23.6392 123.026 23.5114L121.208 23.0852C120.209 22.8485 119.475 22.4815 119.006 21.9844C118.542 21.4825 118.31 20.8551 118.31 20.1023C118.31 19.4867 118.483 18.9422 118.828 18.4688C119.179 17.9953 119.655 17.6236 120.256 17.3537C120.862 17.0838 121.549 16.9489 122.316 16.9489C123.395 16.9489 124.243 17.1856 124.858 17.6591C125.479 18.1326 125.919 18.7576 126.179 19.5341ZM138.646 28.2273C137.737 28.2273 136.934 27.9976 136.238 27.5384C135.542 27.0743 134.997 26.4209 134.604 25.5781C134.211 24.7306 134.015 23.7292 134.015 22.5739C134.015 21.428 134.211 20.4337 134.604 19.5909C134.997 18.7481 135.544 18.0971 136.245 17.6378C136.946 17.1785 137.755 16.9489 138.674 16.9489C139.384 16.9489 139.945 17.0672 140.357 17.304C140.774 17.536 141.091 17.8011 141.309 18.0994C141.531 18.393 141.704 18.6345 141.827 18.8239H141.969V13.4545H143.646V28H142.026V26.3239H141.827C141.704 26.5227 141.529 26.7737 141.302 27.0767C141.075 27.375 140.75 27.6425 140.329 27.8793C139.907 28.1113 139.346 28.2273 138.646 28.2273ZM138.873 26.7216C139.545 26.7216 140.113 26.5464 140.577 26.196C141.041 25.8409 141.394 25.3509 141.636 24.7259C141.877 24.0961 141.998 23.3693 141.998 22.5455C141.998 21.7311 141.879 21.0185 141.643 20.4077C141.406 19.7921 141.056 19.3139 140.592 18.973C140.128 18.6274 139.555 18.4545 138.873 18.4545C138.163 18.4545 137.571 18.6368 137.097 19.0014C136.629 19.3613 136.276 19.8513 136.039 20.4716C135.807 21.0871 135.691 21.7784 135.691 22.5455C135.691 23.322 135.809 24.0275 136.046 24.6619C136.288 25.2917 136.643 25.7936 137.112 26.1676C137.585 26.5369 138.172 26.7216 138.873 26.7216ZM151.522 28.2273C150.471 28.2273 149.564 27.9953 148.802 27.5312C148.044 27.0625 147.46 26.4091 147.048 25.571C146.64 24.7282 146.437 23.7481 146.437 22.6307C146.437 21.5133 146.64 20.5284 147.048 19.6761C147.46 18.8191 148.032 18.1515 148.766 17.6733C149.505 17.1903 150.367 16.9489 151.352 16.9489C151.92 16.9489 152.481 17.0436 153.035 17.233C153.589 17.4223 154.093 17.7301 154.548 18.1562C155.002 18.5777 155.364 19.1364 155.634 19.8324C155.904 20.5284 156.039 21.3854 156.039 22.4034V23.1136H147.63V21.6648H154.335C154.335 21.0492 154.211 20.5 153.965 20.017C153.724 19.5341 153.378 19.1529 152.928 18.8736C152.483 18.5942 151.958 18.4545 151.352 18.4545C150.684 18.4545 150.106 18.6203 149.619 18.9517C149.136 19.2784 148.764 19.7045 148.504 20.2301C148.243 20.7557 148.113 21.3191 148.113 21.9205V22.8864C148.113 23.7102 148.255 24.4086 148.539 24.9815C148.828 25.5497 149.228 25.983 149.739 26.2812C150.251 26.5748 150.845 26.7216 151.522 26.7216C151.962 26.7216 152.36 26.66 152.715 26.5369C153.075 26.4091 153.385 26.2197 153.646 25.9688C153.906 25.7131 154.107 25.3958 154.249 25.017L155.869 25.4716C155.698 26.0208 155.412 26.5038 155.009 26.9205C154.607 27.3324 154.11 27.6544 153.518 27.8864C152.926 28.1136 152.261 28.2273 151.522 28.2273ZM168.646 28.2273C167.623 28.2273 166.742 27.9858 166.004 27.5028C165.265 27.0199 164.697 26.3546 164.299 25.5071C163.901 24.6596 163.702 23.6913 163.702 22.6023C163.702 21.4943 163.906 20.5166 164.313 19.669C164.725 18.8168 165.298 18.1515 166.032 17.6733C166.771 17.1903 167.632 16.9489 168.617 16.9489C169.384 16.9489 170.076 17.0909 170.691 17.375C171.307 17.6591 171.811 18.0568 172.204 18.5682C172.597 19.0795 172.841 19.6761 172.935 20.358H171.259C171.131 19.8608 170.847 19.4205 170.407 19.0369C169.971 18.6487 169.384 18.4545 168.646 18.4545C167.992 18.4545 167.419 18.625 166.927 18.9659C166.439 19.3021 166.058 19.7779 165.783 20.3935C165.513 21.0043 165.379 21.7216 165.379 22.5455C165.379 23.3883 165.511 24.1222 165.776 24.7472C166.046 25.3722 166.425 25.8575 166.913 26.2031C167.405 26.5488 167.983 26.7216 168.646 26.7216C169.081 26.7216 169.477 26.6458 169.832 26.4943C170.187 26.3428 170.487 26.125 170.734 25.8409C170.98 25.5568 171.155 25.2159 171.259 24.8182H172.935C172.841 25.4621 172.606 26.0421 172.232 26.5582C171.863 27.0696 171.373 27.4768 170.762 27.7798C170.156 28.0781 169.451 28.2273 168.646 28.2273ZM179.817 28.2273C178.833 28.2273 177.969 27.9929 177.225 27.5241C176.487 27.0554 175.909 26.3996 175.492 25.5568C175.08 24.714 174.874 23.7292 174.874 22.6023C174.874 21.4659 175.08 20.474 175.492 19.6264C175.909 18.7789 176.487 18.1207 177.225 17.652C177.969 17.1832 178.833 16.9489 179.817 16.9489C180.802 16.9489 181.664 17.1832 182.403 17.652C183.146 18.1207 183.724 18.7789 184.136 19.6264C184.552 20.474 184.761 21.4659 184.761 22.6023C184.761 23.7292 184.552 24.714 184.136 25.5568C183.724 26.3996 183.146 27.0554 182.403 27.5241C181.664 27.9929 180.802 28.2273 179.817 28.2273ZM179.817 26.7216C180.566 26.7216 181.181 26.5298 181.664 26.1463C182.147 25.7628 182.504 25.2585 182.737 24.6335C182.969 24.0085 183.085 23.3314 183.085 22.6023C183.085 21.8731 182.969 21.1937 182.737 20.5639C182.504 19.9342 182.147 19.4252 181.664 19.0369C181.181 18.6487 180.566 18.4545 179.817 18.4545C179.069 18.4545 178.454 18.6487 177.971 19.0369C177.488 19.4252 177.13 19.9342 176.898 20.5639C176.666 21.1937 176.55 21.8731 176.55 22.6023C176.55 23.3314 176.666 24.0085 176.898 24.6335C177.13 25.2585 177.488 25.7628 177.971 26.1463C178.454 26.5298 179.069 26.7216 179.817 26.7216ZM188.995 21.4375V28H187.319V17.0909H188.939V18.7955H189.081C189.336 18.2415 189.725 17.7964 190.245 17.4602C190.766 17.1193 191.439 16.9489 192.262 16.9489C193.001 16.9489 193.647 17.1004 194.201 17.4034C194.755 17.7017 195.186 18.1562 195.494 18.767C195.802 19.3731 195.956 20.1402 195.956 21.0682V28H194.279V21.1818C194.279 20.3248 194.057 19.6572 193.612 19.179C193.167 18.696 192.556 18.4545 191.779 18.4545C191.244 18.4545 190.766 18.5705 190.345 18.8026C189.928 19.0346 189.599 19.3731 189.358 19.8182C189.116 20.2633 188.995 20.803 188.995 21.4375ZM203.763 17.0909V18.5114H198.109V17.0909H203.763ZM199.757 14.4773H201.433V24.875C201.433 25.3485 201.502 25.7036 201.639 25.9403C201.781 26.1723 201.961 26.3286 202.179 26.4091C202.402 26.4848 202.636 26.5227 202.882 26.5227C203.067 26.5227 203.218 26.5133 203.337 26.4943C203.455 26.4706 203.55 26.4517 203.621 26.4375L203.962 27.9432C203.848 27.9858 203.689 28.0284 203.486 28.071C203.282 28.1184 203.024 28.142 202.712 28.142C202.238 28.142 201.774 28.0402 201.32 27.8366C200.87 27.633 200.496 27.3229 200.197 26.9062C199.904 26.4896 199.757 25.964 199.757 25.3295V14.4773ZM210.741 28.2273C209.69 28.2273 208.783 27.9953 208.021 27.5312C207.263 27.0625 206.678 26.4091 206.266 25.571C205.859 24.7282 205.656 23.7481 205.656 22.6307C205.656 21.5133 205.859 20.5284 206.266 19.6761C206.678 18.8191 207.251 18.1515 207.985 17.6733C208.724 17.1903 209.585 16.9489 210.57 16.9489C211.138 16.9489 211.7 17.0436 212.254 17.233C212.808 17.4223 213.312 17.7301 213.766 18.1562C214.221 18.5777 214.583 19.1364 214.853 19.8324C215.123 20.5284 215.258 21.3854 215.258 22.4034V23.1136H206.849V21.6648H213.553C213.553 21.0492 213.43 20.5 213.184 20.017C212.942 19.5341 212.597 19.1529 212.147 18.8736C211.702 18.5942 211.176 18.4545 210.57 18.4545C209.903 18.4545 209.325 18.6203 208.837 18.9517C208.354 19.2784 207.983 19.7045 207.722 20.2301C207.462 20.7557 207.332 21.3191 207.332 21.9205V22.8864C207.332 23.7102 207.474 24.4086 207.758 24.9815C208.047 25.5497 208.447 25.983 208.958 26.2812C209.469 26.5748 210.064 26.7216 210.741 26.7216C211.181 26.7216 211.579 26.66 211.934 26.5369C212.294 26.4091 212.604 26.2197 212.864 25.9688C213.125 25.7131 213.326 25.3958 213.468 25.017L215.087 25.4716C214.917 26.0208 214.63 26.5038 214.228 26.9205C213.826 27.3324 213.328 27.6544 212.737 27.8864C212.145 28.1136 211.479 28.2273 210.741 28.2273ZM224.683 23.5398V17.0909H226.359V28H224.683V26.1534H224.569C224.313 26.7074 223.915 27.1785 223.376 27.5668C222.836 27.9503 222.154 28.142 221.33 28.142C220.648 28.142 220.042 27.9929 219.512 27.6946C218.982 27.3916 218.565 26.937 218.262 26.331C217.959 25.7202 217.808 24.9508 217.808 24.0227V17.0909H219.484V23.9091C219.484 24.7045 219.706 25.339 220.151 25.8125C220.601 26.286 221.174 26.5227 221.87 26.5227C222.287 26.5227 222.71 26.4162 223.141 26.2031C223.577 25.9901 223.942 25.6634 224.235 25.223C224.533 24.7827 224.683 24.2216 224.683 23.5398ZM221.33 15.6136L223.063 12.3182H225.023L222.808 15.6136H221.33ZM233.548 28.2273C232.639 28.2273 231.836 27.9976 231.14 27.5384C230.444 27.0743 229.9 26.4209 229.507 25.5781C229.114 24.7306 228.917 23.7292 228.917 22.5739C228.917 21.428 229.114 20.4337 229.507 19.5909C229.9 18.7481 230.447 18.0971 231.147 17.6378C231.848 17.1785 232.658 16.9489 233.576 16.9489C234.287 16.9489 234.848 17.0672 235.26 17.304C235.676 17.536 235.993 17.8011 236.211 18.0994C236.434 18.393 236.607 18.6345 236.73 18.8239H236.872V13.4545H238.548V28H236.929V26.3239H236.73C236.607 26.5227 236.431 26.7737 236.204 27.0767C235.977 27.375 235.653 27.6425 235.231 27.8793C234.81 28.1113 234.249 28.2273 233.548 28.2273ZM233.775 26.7216C234.448 26.7216 235.016 26.5464 235.48 26.196C235.944 25.8409 236.297 25.3509 236.538 24.7259C236.779 24.0961 236.9 23.3693 236.9 22.5455C236.9 21.7311 236.782 21.0185 236.545 20.4077C236.308 19.7921 235.958 19.3139 235.494 18.973C235.03 18.6274 234.457 18.4545 233.775 18.4545C233.065 18.4545 232.473 18.6368 232 19.0014C231.531 19.3613 231.178 19.8513 230.941 20.4716C230.709 21.0871 230.593 21.7784 230.593 22.5455C230.593 23.322 230.712 24.0275 230.949 24.6619C231.19 25.2917 231.545 25.7936 232.014 26.1676C232.487 26.5369 233.074 26.7216 233.775 26.7216ZM246.282 28.2273C245.297 28.2273 244.433 27.9929 243.69 27.5241C242.951 27.0554 242.374 26.3996 241.957 25.5568C241.545 24.714 241.339 23.7292 241.339 22.6023C241.339 21.4659 241.545 20.474 241.957 19.6264C242.374 18.7789 242.951 18.1207 243.69 17.652C244.433 17.1832 245.297 16.9489 246.282 16.9489C247.267 16.9489 248.129 17.1832 248.868 17.652C249.611 18.1207 250.189 18.7789 250.6 19.6264C251.017 20.474 251.225 21.4659 251.225 22.6023C251.225 23.7292 251.017 24.714 250.6 25.5568C250.189 26.3996 249.611 27.0554 248.868 27.5241C248.129 27.9929 247.267 28.2273 246.282 28.2273ZM246.282 26.7216C247.03 26.7216 247.646 26.5298 248.129 26.1463C248.612 25.7628 248.969 25.2585 249.201 24.6335C249.433 24.0085 249.549 23.3314 249.549 22.6023C249.549 21.8731 249.433 21.1937 249.201 20.5639C248.969 19.9342 248.612 19.4252 248.129 19.0369C247.646 18.6487 247.03 18.4545 246.282 18.4545C245.534 18.4545 244.919 18.6487 244.436 19.0369C243.953 19.4252 243.595 19.9342 243.363 20.5639C243.131 21.1937 243.015 21.8731 243.015 22.6023C243.015 23.3314 243.131 24.0085 243.363 24.6335C243.595 25.2585 243.953 25.7628 244.436 26.1463C244.919 26.5298 245.534 26.7216 246.282 26.7216Z" fill="#122235"/>
<path d="M19.9833 3.42114C10.7833 3.42114 3.33325 11.0843 3.33325 20.5264C3.33325 29.9685 10.7833 37.6317 19.9833 37.6317C29.1999 37.6317 36.6666 29.9685 36.6666 20.5264C36.6666 11.0843 29.1999 3.42114 19.9833 3.42114ZM19.9999 34.2106C12.6333 34.2106 6.66659 28.0869 6.66659 20.5264C6.66659 12.9659 12.6333 6.8422 19.9999 6.8422C27.3666 6.8422 33.3333 12.9659 33.3333 20.5264C33.3333 28.0869 27.3666 34.2106 19.9999 34.2106Z" fill="#247BA0"/>
<path d="M20.8333 11.9736H18.3333V22.2368L27.0833 27.6249L28.3333 25.521L20.8333 20.9539V11.9736Z" fill="#247BA0"/>
</svg>
